# xmcd
#
# Track frame offsets:
#	150
#	22428
#	32566
#	62497
#	73869
#	89494
#	100368
#	113012
#	125418
#	155184
#	173993
#	186917
#	198167
#	207756
#	221517
#	236115
#	251504
#
# Disc length: 3519 seconds
#
# Revision: 1
# Processed by: cddbd v1.5.2PL0 Copyright (c) Steve Scherf et al.
# Submitted via: EasyCDDAExtractor 16.0.6.1
#
DISCID=fd0dbd11
DTITLE=James Brown - Only !
DYEAR=2012
DGENRE=Gospel
TTITLE0=Make It Funky
TTITLE1=Good Good Lovin'
TTITLE2=It's A Man's, Man's, Man's World (Live)
TTITLE3=Papa's Got A Brand New Bag (Live)
TTITLE4=I Got You (I Feel Good)
TTITLE5=Bewildered
TTITLE6=Think
TTITLE7=Please, Please, Please
TTITLE8=Sex Machine (Live)
TTITLE9=Get On The Good Foot (Live)
TTITLE10=It Hurts To Tell You
TTITLE11=Try Me
TTITLE12=I'll Go Crazy
TTITLE13=Baby You're Right
TTITLE14=It's Too Funky In Here (Live)
TTITLE15=Lost Someone
TTITLE16=I Don't Mind
EXTD=
EXTT0=
EXTT1=
EXTT2=
EXTT3=
EXTT4=
EXTT5=
EXTT6=
EXTT7=
EXTT8=
EXTT9=
EXTT10=
EXTT11=
EXTT12=
EXTT13=
EXTT14=
EXTT15=
EXTT16=
PLAYORDER=
